<?xml version="1.0" standalone="no"?>
<!DOCTYPE svg PUBLIC "-//W3C//DTD SVG 20010904//EN"
 "http://www.w3.org/TR/2001/REC-SVG-20010904/DTD/svg10.dtd">
<svg version="1.0" xmlns="http://www.w3.org/2000/svg"
 width="28.000000pt" height="10.000000pt" viewBox="0 0 394.000000 45.000000"
 preserveAspectRatio="xMidYMid meet">

<g transform="translate(0.000000,45.000000) scale(0.100000,-0.100000)"
fill="#000000" stroke="none">
<path d="M142 420 c-32 -30 -37 -64 -15 -102 24 -42 66 -50 84 -17 19 36 16
94 -5 118 -24 26 -36 26 -64 1z"/>
<path d="M282 403 c-20 -8 -42 -59 -42 -97 0 -30 4 -37 26 -42 32 -8 74 20 87
59 16 50 -26 99 -71 80z"/>
<path d="M41 305 c-30 -39 -36 -82 -15 -106 23 -25 40 -24 69 6 31 30 32 73 5
103 -26 28 -34 28 -59 -3z"/>
<path d="M548 320 c21 -9 22 -14 22 -129 0 -116 -1 -120 -22 -124 -13 -2 9 -4
47 -4 39 0 58 2 43 4 -27 4 -28 7 -28 57 l0 53 50 5 c61 6 90 29 90 73 0 54
-28 70 -134 72 -65 2 -85 0 -68 -7z m146 -16 c21 -20 21 -78 0 -98 -8 -9 -31
-16 -50 -16 l-34 0 0 65 0 65 34 0 c19 0 42 -7 50 -16z"/>
<path d="M857 323 c-3 -5 -24 -57 -47 -118 -23 -60 -51 -118 -62 -127 -20 -17
-19 -18 33 -17 30 0 47 3 39 6 -33 12 -39 23 -28 54 9 27 13 29 64 29 49 0 55
-2 64 -26 14 -37 12 -52 -7 -57 -10 -3 9 -5 42 -5 41 -1 54 2 40 8 -14 5 -35
46 -68 134 -44 116 -58 139 -70 119z m18 -80 c33 -79 33 -83 -19 -83 -25 0
-46 2 -46 4 0 9 43 116 46 116 2 0 11 -17 19 -37z"/>
<path d="M1006 308 c-9 -36 -7 -80 4 -73 6 3 10 14 10 24 0 24 37 61 60 61 19
0 20 -7 20 -124 0 -121 -1 -125 -22 -129 -13 -2 6 -4 42 -4 36 0 55 2 43 4
-22 4 -23 8 -23 129 0 114 2 124 18 124 23 0 46 -25 60 -65 10 -28 10 -27 11
23 l1 52 -109 0 c-104 0 -109 -1 -115 -22z"/>
<path d="M1270 321 c25 -7 25 -7 25 -126 0 -119 0 -119 -25 -126 -15 -4 2 -7
45 -7 39 1 60 3 48 5 -22 4 -23 8 -23 128 0 120 1 124 23 128 12 2 -9 4 -48 5
-43 0 -60 -3 -45 -7z"/>
<path d="M1406 308 c-9 -36 -7 -80 4 -73 6 3 10 14 10 24 0 24 37 61 60 61 19
0 20 -7 20 -124 0 -121 -1 -125 -22 -129 -13 -2 6 -4 42 -4 36 0 55 2 43 4
-22 4 -23 8 -23 129 0 114 2 124 18 124 23 0 46 -25 60 -65 10 -28 10 -27 11
23 l1 52 -109 0 c-104 0 -109 -1 -115 -22z"/>
<path d="M1747 323 c-3 -5 -24 -57 -47 -118 -23 -60 -51 -118 -62 -127 -20
-17 -19 -18 33 -17 30 0 47 3 39 6 -33 12 -39 23 -28 54 9 27 13 29 64 29 49
0 55 -2 64 -26 14 -37 12 -52 -7 -57 -10 -3 9 -5 42 -5 41 -1 54 2 40 8 -14 5
-35 46 -68 134 -44 116 -58 139 -70 119z m18 -80 c33 -79 33 -83 -19 -83 -25
0 -46 2 -46 4 0 9 43 116 46 116 2 0 11 -17 19 -37z"/>
<path d="M1955 305 c-29 -29 -33 -75 -7 -97 9 -9 41 -21 70 -28 62 -14 85 -33
76 -64 -21 -72 -130 -52 -150 28 -11 44 -24 29 -24 -29 0 -52 14 -73 26 -41 5
13 10 13 39 -1 63 -30 135 4 135 65 0 39 -18 61 -63 73 -103 28 -120 43 -92
85 23 35 67 32 99 -7 14 -17 26 -37 26 -45 0 -8 5 -14 10 -14 6 0 10 23 10 50
0 49 -12 66 -24 34 -5 -14 -8 -14 -28 0 -33 23 -75 20 -103 -9z"/>
<path d="M2278 323 c21 -4 22 -8 22 -128 0 -120 -1 -124 -22 -128 -13 -2 9 -4
47 -5 43 0 60 3 45 7 -22 6 -25 13 -28 64 -3 55 -2 57 21 57 27 0 42 -14 50
-45 2 -11 5 9 6 45 1 58 -1 62 -12 40 -8 -16 -23 -26 -40 -28 -27 -3 -27 -3
-27 57 l0 61 45 0 c47 0 85 -25 85 -55 0 -8 5 -15 11 -15 6 0 8 7 5 16 -3 9
-6 27 -6 40 l0 24 -112 -1 c-62 -1 -103 -4 -90 -6z"/>
<path d="M2533 323 c15 -4 17 -19 17 -128 0 -109 -2 -124 -17 -128 -10 -3 33
-5 95 -6 l112 -1 0 34 c0 19 3 41 6 50 3 9 1 16 -5 16 -6 0 -11 -9 -11 -20 0
-12 -11 -32 -25 -46 -20 -20 -33 -25 -68 -22 l-42 3 -3 58 c-3 56 -2 57 23 57
20 0 29 -8 40 -32 14 -32 14 -32 14 37 0 56 -2 65 -10 45 -11 -28 -26 -40 -52
-40 -16 0 -18 8 -15 58 l3 57 42 3 c47 3 83 -22 83 -58 0 -11 5 -20 10 -20 12
0 13 15 4 59 l-6 31 -107 -1 c-58 -1 -98 -3 -88 -6z"/>
<path d="M2790 321 c25 -7 25 -7 25 -126 0 -119 0 -119 -25 -126 -14 -4 28 -7
93 -8 l117 -1 0 28 c0 15 3 37 6 50 4 12 2 22 -4 22 -6 0 -13 -14 -17 -30 -9
-40 -44 -62 -92 -58 l-38 3 0 120 c0 119 0 119 25 126 16 4 -1 7 -45 7 -44 0
-61 -3 -45 -7z"/>
<path d="M3050 321 c25 -7 25 -7 25 -126 0 -119 0 -119 -25 -126 -15 -4 2 -7
45 -7 39 1 60 3 48 5 -22 4 -23 8 -23 128 0 120 1 124 23 128 12 2 -9 4 -48 5
-43 0 -60 -3 -45 -7z"/>
<path d="M3270 317 c-41 -21 -70 -74 -70 -129 0 -41 5 -54 33 -84 25 -28 41
-36 77 -39 40 -4 41 -4 13 4 -18 5 -40 14 -48 21 -22 18 -38 88 -30 136 17
115 110 126 157 19 13 -30 13 -30 16 24 3 56 -3 75 -18 51 -7 -11 -13 -12 -35
-2 -33 15 -63 15 -95 -1z"/>
<path d="M3483 323 c15 -4 17 -19 17 -128 0 -109 -2 -124 -17 -128 -10 -3 33
-5 95 -6 l112 -1 0 34 c0 19 3 41 6 50 3 9 1 16 -5 16 -6 0 -11 -9 -11 -20 0
-12 -11 -32 -25 -46 -20 -20 -33 -25 -68 -22 l-42 3 -3 58 c-3 56 -2 57 23 57
20 0 29 -8 40 -32 14 -32 14 -32 14 37 0 56 -2 65 -10 45 -11 -28 -26 -40 -52
-40 -16 0 -18 8 -15 58 l3 57 42 3 c47 3 83 -22 83 -58 0 -11 5 -20 10 -20 12
0 13 15 4 59 l-6 31 -107 -1 c-58 -1 -98 -3 -88 -6z"/>
<path d="M3765 305 c-29 -29 -33 -75 -7 -97 9 -9 41 -21 70 -28 62 -14 85 -33
76 -64 -21 -72 -130 -52 -150 28 -11 44 -24 29 -24 -29 0 -52 14 -73 26 -41 5
13 10 13 39 -1 63 -30 135 4 135 65 0 39 -18 61 -63 73 -103 28 -120 43 -92
85 23 35 67 32 99 -7 14 -17 26 -37 26 -45 0 -8 5 -14 10 -14 6 0 10 23 10 50
0 49 -12 66 -24 34 -5 -14 -8 -14 -28 0 -33 23 -75 20 -103 -9z"/>
<path d="M315 235 c-29 -28 -30 -43 -11 -90 19 -45 49 -47 71 -5 19 38 19 84
-1 104 -21 22 -31 20 -59 -9z"/>
<path d="M145 186 c-11 -7 -36 -16 -56 -20 -44 -8 -62 -26 -57 -58 5 -33 56
-63 154 -87 79 -20 88 -20 110 -6 35 23 31 58 -11 96 -19 18 -35 38 -35 45 0
17 -40 44 -65 44 -11 0 -29 -6 -40 -14z"/>
<path d="M3407 138 c-4 -15 -17 -37 -30 -49 -12 -12 -16 -20 -8 -17 23 7 53
53 49 74 -3 15 -5 13 -11 -8z"/>
</g>
</svg>
